HIERARCHY
ROOT joint_Root
{
	OFFSET 0.0 0.0 0.0
	CHANNELS 6 Xposition Yposition Zposition Zrotation Xrotation Yrotation 
	JOINT Hips
	{
		OFFSET 4.5925 91.4895 -427.239
		CHANNELS 6 Xposition Yposition Zposition Zrotation Xrotation Yrotation 
		JOINT Spine
		{
			OFFSET 15.7357 0.0 0.0
			CHANNELS 6 Xposition Yposition Zposition Zrotation Xrotation Yrotation 
			JOINT Chest
			{
				OFFSET 8.98455 -0.406207 0.0
				CHANNELS 6 Xposition Yposition Zposition Zrotation Xrotation Yrotation 
				JOINT Neck
				{
					OFFSET 16.3773 0.0 0.0
					CHANNELS 6 Xposition Yposition Zposition Zrotation Xrotation Yrotation 
					JOINT Head
					{
						OFFSET 6.45672 0.0 0.0
						CHANNELS 6 Xposition Yposition Zposition Zrotation Xrotation Yrotation 
						End Site
						{
							OFFSET 0.0 0.0 0.0
						}
					}
				}
				JOINT Shoulder_L
				{
					OFFSET 12.9942 -0.242716 4.98039
					CHANNELS 6 Xposition Yposition Zposition Zrotation Xrotation Yrotation 
					JOINT UpperArm_L
					{
						OFFSET 5.34809 0.0 0.0
						CHANNELS 6 Xposition Yposition Zposition Zrotation Xrotation Yrotation 
						JOINT LowerArm_L
						{
							OFFSET 24.3286 1.87007e-05 0.0
							CHANNELS 6 Xposition Yposition Zposition Zrotation Xrotation Yrotation 
							JOINT Hand_L
							{
								OFFSET 22.2916 0.0 0.0
								CHANNELS 6 Xposition Yposition Zposition Zrotation Xrotation Yrotation 
								End Site
								{
									OFFSET 0.0 0.0 0.0
								}
							}
						}
					}
				}
				JOINT Shoulder_R
				{
					OFFSET 12.9945 -0.242716 -4.98039
					CHANNELS 6 Xposition Yposition Zposition Zrotation Xrotation Yrotation 
					JOINT UpperArm_R
					{
						OFFSET -5.34813 0.0 0.0
						CHANNELS 6 Xposition Yposition Zposition Zrotation Xrotation Yrotation 
						JOINT LowerArm_R
						{
							OFFSET -24.3289 0.000322201 0.0
							CHANNELS 6 Xposition Yposition Zposition Zrotation Xrotation Yrotation 
							JOINT Hand_R
							{
								OFFSET -22.2915 -0.000108084 0.0
								CHANNELS 6 Xposition Yposition Zposition Zrotation Xrotation Yrotation 
								End Site
								{
									OFFSET 0.0 0.0 0.0
								}
							}
						}
					}
				}
			}
		}
		JOINT UpperLeg_L
		{
			OFFSET -2.19248 -6.46944 0.0
			CHANNELS 6 Xposition Yposition Zposition Zrotation Xrotation Yrotation 
			JOINT LowerLeg_L
			{
				OFFSET 39.0811 0.0 -1.23785e-05
				CHANNELS 6 Xposition Yposition Zposition Zrotation Xrotation Yrotation 
				JOINT Foot_L
				{
					OFFSET 40.9854 0.0 -1.26872e-05
					CHANNELS 6 Xposition Yposition Zposition Zrotation Xrotation Yrotation 
					JOINT Toes_L
					{
						OFFSET 11.7543 0.0 0.0
						CHANNELS 6 Xposition Yposition Zposition Zrotation Xrotation Yrotation 
						End Site
						{
							OFFSET 0.0 0.0 0.0
						}
					}
				}
			}
		}
		JOINT UpperLeg_R
		{
			OFFSET -2.19251 6.46944 0.0
			CHANNELS 6 Xposition Yposition Zposition Zrotation Xrotation Yrotation 
			JOINT LowerLeg_R
			{
				OFFSET -39.0811 -0.00228153 -0.0401928
				CHANNELS 6 Xposition Yposition Zposition Zrotation Xrotation Yrotation 
				JOINT Foot_R
				{
					OFFSET -40.9854 0.0 0.0
					CHANNELS 6 Xposition Yposition Zposition Zrotation Xrotation Yrotation 
					JOINT Toes_R
					{
						OFFSET -11.7543 0.0 0.0
						CHANNELS 6 Xposition Yposition Zposition Zrotation Xrotation Yrotation 
						End Site
						{
							OFFSET 0.0 0.0 0.0
						}
					}
				}
			}
		}
	}
}
MOTION
Frames:	4
Frame Time:	0.0333333
0.000000 0.000000 0.000000 0.000000 0.000000 -0.000000 2.385660 91.493200 2.044060 87.607800 -17.812000 1.402910 15.735700 0.000005 -0.000001 68.686400 85.757900 -65.180700 8.984550 -0.406207 -0.000000 0.250257 -3.312610 7.015720 16.377300 -0.000001 -0.000001 6.974780 -0.318459 -4.033240 6.456720 -0.000001 -0.000000 0.406482 0.012679 -1.899450 12.994200 -0.242716 4.980390 -82.813500 -14.058500 -62.567300 5.348090 -0.000007 -0.000001 -26.294300 -67.589900 -66.666500 24.328600 0.000019 0.000005 4.308250 4.627540 -43.036100 22.291600 -0.000001 0.000005 23.104900 5.433610 -4.065140 12.994500 -0.242716 -4.980390 87.980400 6.700060 -73.183200 -5.348130 -0.000001 -0.000004 -58.797100 20.809300 -0.323323 -24.328900 0.000322 -0.000009 0.392738 0.742599 -27.937100 -22.291500 -0.000108 -0.000004 18.749000 5.416490 -3.481290 -2.192480 -6.469440 -0.000000 -176.948000 -19.754800 -2.667820 39.081100 -0.000007 -0.000012 -0.133686 0.280149 25.510500 40.985400 -0.000006 -0.000013 0.085103 -2.442620 -70.962100 11.754300 -0.000000 0.000003 -0.000192 -0.001792 -16.645200 -2.192510 6.469440 -0.000001 176.014000 19.864900 174.060000 -39.081100 -0.002282 -0.040193 -0.005673 0.019064 25.234000 -40.985400 0.000008 0.000006 7.210700 26.368100 -69.550400 -11.754300 -0.000006 -0.000006 -0.000413 -0.006677 -16.845000
0.000000 0.000000 0.000000 0.000000 0.000000 -0.000000 2.370520 91.504600 1.998150 87.707900 -17.279600 1.433180 15.735700 0.000005 -0.000001 69.083600 85.764700 -65.658000 8.984550 -0.406207 -0.000000 0.253859 -3.247510 6.855450 16.377300 -0.000001 -0.000001 6.812940 -0.256156 -4.099420 6.456720 -0.000001 -0.000000 0.445661 0.114187 -2.255840 12.994200 -0.242716 4.980390 -83.086300 -13.706800 -62.900000 5.348090 -0.000007 -0.000001 -26.172500 -66.279200 -65.020600 24.328600 0.000019 0.000005 5.060590 4.945060 -45.771800 22.291600 -0.000001 0.000005 23.896600 5.422920 -3.698690 12.994500 -0.242716 -4.980390 87.972900 6.753970 -73.250800 -5.348130 -0.000001 -0.000004 -58.594000 20.546500 -0.982394 -24.328900 0.000322 -0.000009 0.221736 0.432044 -27.277800 -22.291500 -0.000108 -0.000004 18.830400 5.413590 -3.384500 -2.192480 -6.469440 -0.000000 -176.963000 -19.784300 -2.726620 39.081100 -0.000007 -0.000012 -0.132948 0.279048 25.474900 40.985400 -0.000006 -0.000013 0.210474 -1.898900 -70.863000 11.754300 -0.000000 0.000003 -0.000194 -0.001803 -16.645600 -2.192510 6.469440 -0.000001 175.927000 20.206000 174.124000 -39.081100 -0.002282 -0.040193 -0.007989 0.024014 25.201200 -40.985400 0.000008 0.000006 7.148550 26.190700 -69.538500 -11.754300 -0.000006 -0.000006 -0.000228 -0.003760 -16.726600
0.000000 0.000000 0.000000 0.000000 0.000000 -0.000000 2.328860 91.513800 1.937720 87.823400 -16.645100 1.500290 15.735700 0.000005 -0.000001 69.409900 85.741300 -66.080100 8.984550 -0.406207 -0.000000 0.310575 -3.210960 6.665210 16.377300 -0.000001 -0.000001 6.605910 -0.189234 -4.069370 6.456720 -0.000001 -0.000000 0.416974 0.281031 -2.417160 12.994200 -0.242716 4.980390 -83.412800 -13.245900 -63.252900 5.348090 -0.000007 -0.000001 -26.354400 -64.496200 -62.991200 24.328600 0.000019 0.000005 5.394820 4.618820 -49.545400 22.291600 -0.000001 0.000005 24.208100 5.412520 -3.349090 12.994500 -0.242716 -4.980390 87.958200 6.842320 -73.340600 -5.348130 -0.000001 -0.000004 -58.408400 20.504500 -1.653310 -24.328900 0.000322 -0.000009 0.053335 0.109265 -26.465900 -22.291500 -0.000108 -0.000004 18.906200 5.413790 -3.391050 -2.192480 -6.469440 -0.000000 -176.971000 -19.743400 -2.763620 39.081100 -0.000007 -0.000012 -0.132055 0.277484 25.450000 40.985400 -0.000006 -0.000013 0.331296 -1.327630 -70.763200 11.754300 -0.000000 0.000003 -0.000183 -0.001721 -16.642600 -2.192510 6.469440 -0.000001 175.826000 20.516300 174.216000 -39.081100 -0.002282 -0.040193 -0.012836 0.034309 25.203500 -40.985400 0.000008 0.000006 7.014080 25.894600 -69.492700 -11.754300 -0.000006 -0.000006 -0.000170 -0.002818 -16.688300
0.000000 0.000000 0.000000 0.000000 0.000000 -0.000000 2.259380 91.508700 1.881680 87.898800 -15.901100 1.582350 15.735700 0.000005 -0.000001 69.831300 85.702200 -66.577400 8.984550 -0.406207 -0.000000 0.402178 -3.171620 6.515930 16.377300 -0.000001 -0.000001 6.308020 -0.256971 -3.840380 6.456720 -0.000001 -0.000000 0.318688 0.451349 -2.741260 12.994200 -0.242716 4.980390 -83.916100 -12.482800 -63.751500 5.348090 -0.000007 -0.000001 -26.385400 -62.234800 -60.617700 24.328600 0.000019 0.000005 6.025070 4.403560 -53.963300 22.291600 -0.000001 0.000005 24.421300 5.401540 -2.987910 12.994500 -0.242716 -4.980390 87.956500 6.872090 -73.395200 -5.348130 -0.000001 -0.000004 -58.302600 20.600100 -2.178990 -24.328900 0.000322 -0.000009 -0.052280 -0.105789 -25.832500 -22.291500 -0.000108 -0.000004 18.927400 5.413180 -3.370910 -2.192480 -6.469440 -0.000000 -176.943000 -19.483300 -2.866870 39.081100 -0.000007 -0.000012 -0.129533 0.270787 25.564700 40.985400 -0.000006 -0.000013 0.412207 -0.855204 -70.716500 11.754300 -0.000000 0.000003 -0.000186 -0.001746 -16.643500 -2.192510 6.469440 -0.000001 175.751000 20.927100 174.335000 -39.081100 -0.002282 -0.040193 -0.022122 0.053950 25.240700 -40.985400 0.000008 0.000006 6.717540 25.633500 -69.395000 -11.754300 -0.000006 -0.000006 -0.000135 -0.002240 -16.664800
